<svg xmlns="http://www.w3.org/2000/svg" viewBox="0 0 511.999 511.999">
  <path d="M461.91 133.563H320.777c-4.986 0-9.706 2.226-12.878 6.077-3.172 3.84-4.452 8.904-3.506 13.79l37.108 191.607h-151.17c-5.01 0-9.74 2.237-12.923 6.11-3.173 3.863-4.43 8.96-3.45 13.858l26.712 133.563c1.625 8.114 8.515 13.11 15.772 13.423H461.91c27.614 0 50.086-22.47 50.086-50.085V183.65c0-27.615-22.473-50.087-50.087-50.087z"
                                                                                                      fill="#B8C9D9">
  </path>
  <path d="M461.91 283.82h-50.087v-16.694c0-9.22-7.475-16.695-16.695-16.695s-16.695 7.476-16.695 16.696v16.695h-50.086c-9.22 0-16.695 7.476-16.695 16.696s7.475 16.695 16.695 16.695h17.982c3.194 19.863 12.26 34.917 25.552 50.152-7.137 6.956-14.03 13.602-21.95 21.52-6.52 6.52-6.52 17.09 0 23.612 6.52 6.52 17.09 6.52 23.61 0 7.795-7.793 14.675-14.425 21.587-21.163 6.9 6.73 13.788 13.37 21.585 21.164 6.52 6.52 17.09 6.52 23.61 0s6.52-17.09 0-23.61c-7.913-7.915-14.8-14.556-21.95-21.522 13.294-15.234 22.358-30.288 25.554-50.15h17.98c9.22 0 16.696-7.476 16.696-16.696s-7.477-16.695-16.697-16.695zm-66.782 59.41c-7.323-8.737-12.152-16.754-14.652-26.018h29.303c-2.5 9.264-7.33 17.282-14.652 26.017z"
                                                                                                      fill="#E6F3FF">
  </path>
  <path d="M377.286 355.656c-2.504-6.4-8.682-10.618-15.55-10.618H190.332c-5.008 0-9.738 2.237-12.92 6.11-3.173 3.863-4.43 8.96-3.45 13.858L200.67 498.57c1.625 8.113 8.515 13.11 15.772 13.422.48.01.957.01 1.436 0 3.706-.167 7.413-1.58 10.496-4.42L373.07 374.01c5.05-4.664 6.72-11.954 4.216-18.354z"
                                                                                                      fill="#2860CC">
  </path>
  <path d="M361.737 378.428H50.09c-27.62 0-50.086-22.467-50.086-50.086V50.086C.004 22.468 22.472 0 50.09 0h244.865c8 0 14.87 5.674 16.39 13.52l66.782 345.038c.946 4.892-.337 9.956-3.51 13.794-3.174 3.848-7.89 6.076-12.88 6.076z"
                                                                                                      fill="#167EE6">
  </path>
  <path d="M166.958 255.996c-36.814 0-66.78-29.967-66.78-66.78s29.966-66.782 66.78-66.782c9.032 0 17.804 1.793 26.02 5.282 8.48 3.62 12.425 13.434 8.805 21.913-3.62 8.445-13.402 12.423-21.913 8.803-4.044-1.73-8.413-2.61-12.913-2.61-18.424 0-33.39 14.968-33.39 33.392s14.966 33.39 33.39 33.39c12.326 0 23.12-6.716 28.923-16.694h-12.228c-9.228 0-16.695-7.466-16.695-16.694 0-9.228 7.467-16.695 16.695-16.695h33.39c9.23 0 16.696 7.468 16.696 16.696 0 36.812-29.966 66.78-66.78 66.78z"
                                                                                                      fill="#E6F3FF">
  </path>
</svg>